<svg width="25" height="25" viewBox="0 0 25 25" fill="none" xmlns="http://www.w3.org/2000/svg">
<path d="M11.5396 4.23108H4.53955C4.00912 4.23108 3.50041 4.44179 3.12534 4.81687C2.75026 5.19194 2.53955 5.70065 2.53955 6.23108V20.2311C2.53955 20.7615 2.75026 21.2702 3.12534 21.6453C3.50041 22.0204 4.00912 22.2311 4.53955 22.2311H18.5396C19.07 22.2311 19.5787 22.0204 19.9538 21.6453C20.3288 21.2702 20.5396 20.7615 20.5396 20.2311V13.2311" stroke="#575757" stroke-width="2" stroke-linecap="round" stroke-linejoin="round"/>
<path d="M19.0396 2.73106C19.4374 2.33324 19.9769 2.10974 20.5396 2.10974C21.1022 2.10974 21.6417 2.33324 22.0396 2.73106C22.4374 3.12889 22.6609 3.66845 22.6609 4.23106C22.6609 4.79367 22.4374 5.33324 22.0396 5.73106L12.5396 15.2311L8.53955 16.2311L9.53955 12.2311L19.0396 2.73106Z" stroke="#575757" stroke-width="2" stroke-linecap="round" stroke-linejoin="round"/>
</svg>
